<svg xmlns="http://www.w3.org/2000/svg" width="200" height="50" viewBox="0 0 200 50">
  <g id="グループ_370" data-name="グループ 370" transform="translate(-627 126)">
    <rect id="長方形_79" data-name="長方形 79" width="200" height="50" transform="translate(627 -126)" fill="none"/>
    <g id="グループ_369" data-name="グループ 369" transform="translate(266 -9)">
      <path id="パス_133" data-name="パス 133" d="M9.648-.792a.555.555,0,0,0-.594-.54H9c-.36.018-1.548.036-2.646.036-2.826,0-3.24-.072-3.312-1.134-.018-.342-.036-1.35-.036-2.628,0-2.646.054-6.408.108-7.542v-.036a.6.6,0,0,0-.612-.612.566.566,0,0,0-.594.594v.4c0,1.818-.072,5.868-.072,8.406,0,.7,0,1.278.018,1.674C1.89-.918,2.592-.36,4.176-.234c.234.018,1.332.018,2.412.018,1.1,0,2.2,0,2.43-.018A.579.579,0,0,0,9.648-.792Zm8.334.81a6.328,6.328,0,0,0,6.534-6.7,6.439,6.439,0,0,0-6.534-6.732,6.439,6.439,0,0,0-6.534,6.732A6.328,6.328,0,0,0,17.982.018Zm0-1.026a5.344,5.344,0,0,1-5.364-5.67A5.381,5.381,0,0,1,17.982-12.4a5.381,5.381,0,0,1,5.364,5.724A5.344,5.344,0,0,1,17.982-1.008ZM34.038-5.6c.828-.036,1.89-.054,2.538-.054.5,0,1.152,0,1.152.846A4.131,4.131,0,0,1,33.264-1.17a5.1,5.1,0,0,1-5.2-5.418c0-2.916,1.962-5.778,5.382-5.778a4.134,4.134,0,0,1,3.42,1.566.624.624,0,0,0,.5.288.615.615,0,0,0,.594-.612c0-.756-1.944-2.286-4.482-2.286-4.32,0-6.57,3.456-6.57,6.822A6.307,6.307,0,0,0,33.228.018a5.512,5.512,0,0,0,5.76-5.076A1.507,1.507,0,0,0,37.314-6.7c-.7-.018-1.746-.036-2.646-.036-.738,0-1.206,0-1.206.558a.553.553,0,0,0,.558.576ZM47.61.018a6.328,6.328,0,0,0,6.534-6.7A6.439,6.439,0,0,0,47.61-13.41a6.439,6.439,0,0,0-6.534,6.732A6.328,6.328,0,0,0,47.61.018Zm0-1.026a5.344,5.344,0,0,1-5.364-5.67A5.381,5.381,0,0,1,47.61-12.4a5.381,5.381,0,0,1,5.364,5.724A5.344,5.344,0,0,1,47.61-1.008Z" transform="translate(477 -85)" fill="#fff"/>
      <g id="グループ_364" data-name="グループ 364" transform="translate(5)">
        <circle id="楕円形_3" data-name="楕円形 3" cx="9" cy="9" r="9" transform="translate(385 -101)" fill="#fff"/>
        <circle id="楕円形_4" data-name="楕円形 4" cx="9" cy="9" r="9" transform="translate(410 -101)" fill="#fff"/>
        <circle id="楕円形_5" data-name="楕円形 5" cx="9" cy="9" r="9" transform="translate(435 -101)" fill="#cbcbcb"/>
      </g>
    </g>
  </g>
</svg>
